<?xml version="1.0" standalone="no"?>
<!DOCTYPE svg PUBLIC "-//W3C//DTD SVG 20010904//EN"
 "http://www.w3.org/TR/2001/REC-SVG-20010904/DTD/svg10.dtd">
<svg version="1.0" xmlns="http://www.w3.org/2000/svg"
 width="1080.000000pt" height="1080.000000pt" viewBox="0 0 1080.000000 1080.000000"
 preserveAspectRatio="xMidYMid meet">

<g transform="translate(0.000000,1080.000000) scale(0.100000,-0.100000)"
fill="#000000" stroke="none">
<path d="M3625 10583 c-99 -21 -204 -66 -291 -124 -82 -55 -205 -211 -248
-313 -55 -131 -71 -316 -40 -445 17 -72 24 -92 73 -193 50 -103 182 -237 288
-291 43 -23 52 -55 22 -78 -13 -10 -32 -19 -43 -19 -88 -1 -702 -179 -713
-207 -3 -7 2 -32 10 -56 8 -23 27 -76 41 -117 15 -41 35 -93 45 -115 10 -22
26 -65 36 -95 15 -48 33 -96 64 -175 4 -11 17 -47 29 -80 11 -33 30 -85 42
-115 12 -30 51 -140 86 -245 36 -104 71 -203 78 -220 8 -16 21 -54 31 -84 10
-29 24 -65 31 -80 8 -14 14 -33 14 -42 0 -9 3 -19 7 -23 7 -7 17 -33 58 -151
13 -38 38 -107 54 -153 17 -46 37 -102 45 -125 8 -23 24 -67 36 -97 11 -30 30
-80 42 -110 11 -30 31 -84 45 -120 14 -36 33 -90 43 -120 23 -68 79 -223 113
-310 13 -36 27 -74 31 -85 4 -11 20 -54 35 -95 15 -41 33 -91 40 -110 28 -80
64 -177 76 -205 7 -16 18 -48 25 -70 7 -22 18 -56 26 -75 7 -19 20 -60 30 -90
9 -30 22 -66 30 -80 18 -36 64 -158 64 -172 0 -6 9 -29 19 -52 10 -23 25 -61
32 -86 7 -25 18 -56 25 -70 7 -14 19 -45 26 -70 46 -143 63 -190 69 -190 3 0
-2 42 -13 93 -10 50 -22 121 -27 157 -5 36 -14 85 -19 110 -49 213 -50 1133
-2 1325 6 22 14 74 19 115 7 62 40 225 91 455 17 76 77 277 95 320 7 17 17 46
23 65 5 19 26 78 46 130 20 52 43 111 51 130 36 94 78 195 86 209 5 9 26 54
48 101 22 47 65 130 96 185 30 55 69 125 85 155 38 69 40 72 130 209 41 62 80
120 85 129 42 67 135 197 172 241 96 114 181 227 175 232 -23 21 -395 48 -741
54 -274 5 -311 10 -311 37 0 5 31 44 68 86 111 126 160 233 182 397 19 143
-16 327 -86 452 -71 127 -214 259 -341 314 -102 45 -177 59 -300 58 -65 -1
-127 -3 -138 -6z"/>
<path d="M4993 8194 c-56 -20 -123 -81 -153 -140 -21 -40 -25 -63 -24 -125 1
-116 49 -195 146 -245 47 -24 48 -24 392 -24 l345 0 56 -26 c148 -70 155 -261
13 -350 l-38 -24 -376 0 c-369 0 -377 0 -406 21 -39 28 -63 82 -48 109 6 11
14 20 18 21 4 1 176 2 382 3 207 1 381 6 388 10 7 4 12 20 12 37 l0 29 -277 0
c-153 0 -348 1 -433 1 -85 0 -161 0 -167 -1 -16 0 -17 -89 -2 -159 8 -38 20
-58 49 -85 76 -69 80 -69 435 -74 426 -5 486 6 578 107 93 103 82 280 -23 379
-75 71 -75 71 -502 77 -370 5 -374 6 -429 84 -64 88 -45 204 44 275 l39 31
373 3 c415 3 427 1 465 -60 24 -40 25 -61 4 -82 -13 -14 -63 -16 -393 -16
-280 0 -380 -3 -389 -12 -18 -18 -14 -46 8 -58 31 -17 845 -13 859 4 7 8 9 41
7 84 -7 108 -47 172 -130 206 -55 23 -758 22 -823 0z"/>
<path d="M2657 8143 c-4 -3 -7 -10 -7 -14 0 -11 29 -19 35 -10 6 11 -20 33
-28 24z"/>
<path d="M2410 8030 c-12 -8 -11 -10 8 -10 12 0 22 5 22 10 0 13 -11 13 -30 0z"/>
<path d="M2354 7994 c-18 -14 -18 -15 4 -4 12 6 22 13 22 15 0 8 -5 6 -26 -11z"/>
<path d="M2791 7784 c0 -11 3 -14 6 -6 3 7 2 16 -1 19 -3 4 -6 -2 -5 -13z"/>
<path d="M2115 7779 c-11 -16 -1 -19 13 -3 7 8 8 14 3 14 -5 0 -13 -5 -16 -11z"/>
<path d="M2841 7694 c0 -11 3 -14 6 -6 3 7 2 16 -1 19 -3 4 -6 -2 -5 -13z"/>
<path d="M2100 7679 c0 -16 32 -59 44 -59 12 0 5 15 -19 45 -17 20 -25 25 -25
14z"/>
<path d="M2300 7353 c0 -5 5 -15 10 -23 8 -12 10 -11 10 8 0 12 -4 22 -10 22
-5 0 -10 -3 -10 -7z"/>
<path d="M2992 7260 c0 -14 2 -19 5 -12 2 6 2 18 0 25 -3 6 -5 1 -5 -13z"/>
<path d="M2346 7262 c6 -4 16 -16 22 -27 8 -15 11 -16 12 -4 0 17 -19 39 -34
39 -8 0 -7 -3 0 -8z"/>
<path d="M2420 7153 c0 -6 9 -21 20 -34 15 -18 19 -20 20 -8 0 9 -9 24 -20 34
-11 10 -20 13 -20 8z"/>
<path d="M3070 7041 c0 -11 5 -23 10 -26 6 -4 10 5 10 19 0 14 -4 26 -10 26
-5 0 -10 -9 -10 -19z"/>
<path d="M3111 6940 c0 -14 9 -41 19 -60 20 -35 20 -35 13 -5 -3 17 -12 44
-19 60 -13 29 -13 29 -13 5z"/>
<path d="M2642 6790 c13 -20 28 -27 28 -12 0 4 -9 13 -20 20 -19 12 -20 11 -8
-8z"/>
<path d="M2690 6707 c0 -8 7 -17 15 -21 8 -3 15 -2 15 3 0 5 -7 14 -15 21 -12
10 -15 10 -15 -3z"/>
<path d="M4823 6674 c-10 -5 -13 -93 -13 -394 0 -332 2 -389 15 -394 8 -3 240
-5 516 -5 369 0 504 -3 515 -12 19 -15 19 -122 1 -138 -10 -7 -169 -12 -528
-13 l-514 -3 0 -35 0 -35 555 -1 c305 -1 561 1 569 6 10 5 13 40 12 156 -1 81
-3 149 -5 151 -1 1 -232 4 -513 5 -414 2 -513 6 -526 17 -15 12 -17 45 -17
295 0 324 0 326 74 326 27 0 52 -7 65 -17 20 -17 21 -28 23 -238 l3 -220 35 0
35 0 0 275 0 275 -145 2 c-80 1 -151 -1 -157 -3z"/>
<path d="M3246 6553 c-4 -9 -2 -21 4 -27 7 -7 10 -2 10 17 0 31 -5 34 -14 10z"/>
<path d="M3300 6416 c0 -9 5 -16 10 -16 6 0 10 4 10 9 0 6 -4 13 -10 16 -5 3
-10 -1 -10 -9z"/>
<path d="M3338 6305 c2 -14 6 -25 8 -25 2 0 4 11 4 25 0 14 -4 25 -9 25 -4 0
-6 -11 -3 -25z"/>
<path d="M3367 6240 c3 -19 11 -38 17 -42 18 -12 17 -3 -4 38 l-19 39 6 -35z"/>
<path d="M3061 6094 c0 -11 3 -14 6 -6 3 7 2 16 -1 19 -3 4 -6 -2 -5 -13z"/>
<path d="M3572 5675 c0 -16 2 -22 5 -12 2 9 2 23 0 30 -3 6 -5 -1 -5 -18z"/>
<path d="M3325 5660 c3 -5 8 -10 11 -10 2 0 4 5 4 10 0 6 -5 10 -11 10 -5 0
-7 -4 -4 -10z"/>
<path d="M3600 5595 c0 -14 4 -25 9 -25 4 0 6 11 3 25 -2 14 -6 25 -8 25 -2 0
-4 -11 -4 -25z"/>
<path d="M3431 5503 c0 -4 4 -17 9 -28 8 -19 9 -19 9 2 1 12 -3 25 -9 28 -5 3
-10 3 -9 -2z"/>
<path d="M3710 5276 c0 -9 5 -16 10 -16 6 0 10 4 10 9 0 6 -4 13 -10 16 -5 3
-10 -1 -10 -9z"/>
<path d="M3570 5263 c0 -5 7 -18 15 -29 12 -16 14 -16 15 -3 0 9 -7 22 -15 29
-8 7 -15 8 -15 3z"/>
<path d="M5215 5133 c-20 -4 -41 -12 -105 -42 -283 -130 -385 -487 -213 -748
73 -110 228 -214 339 -227 79 -8 693 -10 702 -2 11 12 9 296 -2 305 -6 5 -22
8 -36 6 -25 -2 -25 -3 -28 -102 -2 -84 -6 -103 -22 -118 -17 -15 -47 -17 -302
-15 -306 1 -341 5 -436 55 -128 68 -222 228 -222 378 0 203 151 390 347 426
38 8 477 16 590 11 40 -1 59 -93 27 -138 -15 -22 -17 -22 -297 -22 -324 0
-343 -3 -425 -79 -41 -38 -53 -58 -72 -118 -22 -72 -22 -74 -5 -135 20 -74 81
-159 128 -181 81 -36 92 -37 307 -35 207 3 215 4 216 23 0 11 -4 28 -9 38 -8
17 -24 18 -200 16 -119 -1 -208 3 -233 10 -45 12 -114 72 -114 99 0 9 -7 26
-15 36 -8 11 -15 30 -15 43 0 34 38 124 64 150 51 50 71 53 420 53 300 0 326
1 334 18 5 9 8 80 7 157 l-2 140 -354 1 c-195 1 -363 0 -374 -3z"/>
<path d="M3702 5050 c0 -14 2 -19 5 -12 2 6 2 18 0 25 -3 6 -5 1 -5 -13z"/>
<path d="M3801 5034 c0 -11 3 -14 6 -6 3 7 2 16 -1 19 -3 4 -6 -2 -5 -13z"/>
<path d="M3760 4936 c0 -8 7 -16 15 -20 13 -4 14 -2 5 14 -13 23 -20 26 -20 6z"/>
<path d="M3891 4824 c0 -11 3 -14 6 -6 3 7 2 16 -1 19 -3 4 -6 -2 -5 -13z"/>
<path d="M3911 4726 c-9 -11 -10 -20 -3 -33 9 -16 11 -15 17 10 9 33 2 43 -14
23z"/>
<path d="M3930 4663 c0 -23 26 -61 35 -51 10 9 -9 61 -23 66 -7 2 -12 -5 -12
-15z"/>
<path d="M9520 3394 c-14 -2 -56 -9 -95 -15 -79 -12 -81 -13 -186 -63 -81 -39
-112 -67 -175 -161 -91 -134 -114 -221 -114 -418 1 -78 5 -162 10 -187 6 -25
14 -68 19 -95 33 -181 183 -469 308 -590 59 -56 64 -60 122 -90 157 -79 322
-85 496 -19 52 20 134 72 163 104 42 47 129 165 151 205 12 22 31 56 43 75 25
42 77 180 88 235 4 22 15 72 25 110 52 221 38 436 -38 595 -26 54 -94 145
-136 182 -48 41 -173 97 -253 114 -70 14 -376 27 -428 18z m279 -349 c80 -10
143 -55 172 -123 60 -138 15 -493 -86 -692 -66 -128 -132 -176 -231 -168 -55
5 -61 8 -105 57 -44 49 -111 171 -138 251 -41 117 -53 198 -55 345 -1 164 9
206 64 269 39 44 77 58 179 66 95 7 115 7 200 -5z"/>
<path d="M785 3355 c-11 -8 -30 -15 -42 -15 -65 -1 -178 -97 -220 -187 -23
-50 -27 -71 -27 -153 -1 -85 2 -101 28 -154 24 -49 150 -217 206 -276 18 -20
97 -111 142 -165 18 -21 56 -64 84 -95 79 -86 96 -115 92 -157 -2 -30 -10 -42
-37 -60 -33 -22 -41 -23 -262 -23 -129 0 -230 -4 -234 -9 -3 -5 -1 -20 4 -33
5 -13 16 -52 26 -88 14 -55 23 -89 51 -188 3 -11 59 -13 286 -11 241 2 294 5
358 21 146 37 234 129 264 274 13 61 13 78 -1 143 -8 41 -27 93 -41 116 -30
47 -111 155 -142 187 -24 25 -161 175 -198 217 -13 14 -52 55 -86 91 -84 87
-96 107 -96 156 0 79 55 95 317 93 95 0 176 2 182 5 5 4 3 26 -6 59 -8 28 -19
75 -24 102 -6 28 -13 57 -16 65 -4 8 -11 33 -17 55 l-11 40 -280 3 c-236 2
-284 0 -300 -13z"/>
<path d="M1615 3361 c-3 -5 -10 -29 -15 -53 -22 -102 -39 -165 -49 -191 -6
-16 -11 -39 -11 -53 l0 -24 208 0 c190 0 210 -2 225 -18 15 -17 17 -76 17
-644 0 -561 2 -626 16 -632 9 -3 92 -6 184 -6 157 0 170 1 180 19 6 13 10 228
10 628 0 539 2 611 16 631 15 22 19 23 216 22 110 -1 205 3 210 8 5 5 4 20 -2
38 -6 16 -15 47 -20 69 -5 22 -20 78 -33 125 l-23 85 -561 3 c-344 1 -564 -1
-568 -7z"/>
<path d="M3770 3359 c-30 -4 -93 -12 -140 -17 -96 -11 -219 -43 -295 -75 -55
-24 -168 -99 -201 -134 -12 -13 -26 -23 -32 -23 -6 0 -12 -4 -14 -9 -1 -5 -23
-32 -48 -61 -106 -122 -185 -298 -225 -498 -21 -103 -16 -388 8 -497 25 -114
38 -159 48 -170 5 -5 9 -17 9 -26 0 -20 43 -122 79 -189 4 -8 19 -37 34 -65
40 -78 43 -78 154 -3 54 36 117 77 141 92 52 33 59 47 39 89 -96 208 -113 262
-123 389 l-7 87 27 11 c41 15 458 13 479 -2 15 -12 17 -42 19 -263 l3 -250
190 0 190 0 3 598 2 597 -192 -2 -193 -3 -3 -157 -3 -157 -39 -11 c-25 -7
-104 -8 -232 -3 -228 9 -222 5 -163 128 71 147 219 259 380 286 39 7 162 13
275 13 113 1 210 5 216 9 9 5 9 18 2 44 -5 21 -13 57 -18 81 -6 24 -13 48 -17
55 -3 6 -12 36 -18 66 -8 42 -17 59 -34 67 -26 13 -215 15 -301 3z"/>
<path d="M4447 3363 c-9 -8 -9 -1570 -1 -1600 6 -23 8 -23 185 -23 166 0 179
1 189 19 6 13 10 189 10 505 0 266 3 491 6 500 14 36 45 11 155 -121 62 -76
122 -147 132 -158 10 -11 27 -35 38 -52 12 -18 25 -33 30 -33 4 0 15 -12 23
-27 9 -16 32 -46 52 -68 71 -77 69 -67 74 -325 l5 -235 176 -3 c142 -2 178 0
188 12 9 10 13 221 16 810 l4 796 -22 5 c-12 3 -101 4 -197 3 l-175 -3 4 -260
c3 -254 3 -261 -18 -279 -21 -19 -22 -19 -52 10 -17 16 -52 56 -77 89 -25 33
-50 65 -56 70 -6 6 -34 37 -61 70 -63 75 -52 63 -165 194 l-95 110 -181 1
c-99 0 -184 -3 -187 -7z"/>
<path d="M6098 3363 c-10 -2 -23 -26 -33 -61 -9 -31 -23 -79 -31 -107 -21 -73
-35 -147 -30 -153 3 -3 142 -4 308 -3 482 3 548 -17 548 -163 0 -46 -5 -60
-42 -112 -49 -69 -54 -73 -173 -163 -122 -92 -131 -96 -160 -77 -24 16 -25 17
-27 214 l-3 197 -190 0 -190 0 -3 -565 c-1 -311 0 -580 3 -597 l6 -33 183 0
c158 0 185 2 190 16 3 9 6 87 6 173 0 185 -9 168 127 235 51 25 122 63 159 86
36 22 68 40 70 40 2 0 38 26 81 59 144 108 273 254 321 363 32 73 48 214 33
285 -24 113 -32 131 -76 189 -75 96 -117 125 -230 157 -64 19 -103 21 -450 23
-209 1 -388 0 -397 -3z"/>
<path d="M7513 3363 c-7 -2 -13 -12 -13 -21 0 -9 -7 -26 -15 -36 -8 -11 -15
-37 -15 -58 0 -20 -6 -52 -14 -70 -17 -41 -38 -129 -32 -135 2 -2 163 -4 357
-4 500 1 534 -8 533 -138 0 -72 -10 -96 -69 -162 -32 -36 -146 -135 -180 -157
-88 -56 -105 -69 -110 -83 -6 -17 58 -154 165 -354 49 -94 195 -334 209 -345
3 -3 18 -23 33 -45 62 -92 91 -132 119 -162 16 -18 29 -37 29 -42 0 -10 44
-41 59 -41 6 0 40 21 76 48 37 26 74 52 83 57 33 19 131 95 137 105 7 11 -14
50 -42 80 -7 8 -43 53 -78 100 -36 47 -69 90 -73 95 -18 23 -72 104 -104 155
-34 53 -56 92 -112 192 -35 62 -34 109 0 134 94 67 234 196 234 215 0 4 11 25
25 45 38 56 47 106 43 239 -4 116 -5 122 -37 175 -65 106 -155 170 -278 201
-71 17 -117 19 -498 18 -231 0 -426 -3 -432 -6z"/>
<path d="M7494 2928 c-8 -13 -6 -1166 2 -1179 6 -10 344 -12 368 -3 14 6 16
67 16 588 0 439 -3 585 -12 594 -17 17 -364 17 -374 0z"/>
</g>
</svg>
